<svg width="2069" height="1464" xmlns="http://www.w3.org/2000/svg" xmlns:xlink="http://www.w3.org/1999/xlink" overflow="hidden"><defs><clipPath id="clip0"><rect x="-1" y="-1" width="2069" height="1464"/></clipPath><clipPath id="clip1"><rect x="0" y="0" width="2066" height="1461"/></clipPath><clipPath id="clip2"><rect x="0" y="0" width="2066" height="1461"/></clipPath><clipPath id="clip3"><rect x="0" y="0" width="2066" height="1461"/></clipPath><clipPath id="clip4"><rect x="0" y="0" width="2066" height="1461"/></clipPath><clipPath id="clip5"><rect x="0" y="0" width="2066" height="1461"/></clipPath><clipPath id="clip6"><rect x="0" y="0" width="2066" height="1461"/></clipPath><clipPath id="clip7"><rect x="248" y="50" width="1750" height="1211"/></clipPath><clipPath id="clip8"><rect x="248" y="50" width="1750" height="1211"/></clipPath><clipPath id="clip9"><rect x="0" y="0" width="2066" height="1461"/></clipPath><clipPath id="clip10"><rect x="0" y="0" width="2066" height="1461"/></clipPath><clipPath id="clip11"><rect x="0" y="0" width="2066" height="1461"/></clipPath><clipPath id="clip12"><rect x="0" y="0" width="2066" height="1461"/></clipPath><clipPath id="clip13"><rect x="0" y="0" width="2066" height="1461"/></clipPath><clipPath id="clip14"><rect x="0" y="0" width="2066" height="1461"/></clipPath><clipPath id="clip15"><rect x="0" y="0" width="2066" height="1461"/></clipPath><clipPath id="clip16"><rect x="0" y="0" width="2066" height="1461"/></clipPath><clipPath id="clip17"><rect x="0" y="0" width="2066" height="1461"/></clipPath><clipPath id="clip18"><rect x="0" y="0" width="2066" height="1461"/></clipPath></defs><g clip-path="url(#clip0)" transform="translate(1 1)"><rect x="0" y="0" width="2067" height="1462" fill="#FFFFFF"/><g clip-path="url(#clip1)"><rect x="249" y="49.9998" width="1746" height="1208" fill="#FFFFFF"/></g><g clip-path="url(#clip2)"><path d="M248.5 709.523 1994.5 709.523M248.5 160.5 1994.5 160.5" stroke="#D9D9D9" stroke-width="3.4375" stroke-linejoin="round" stroke-miterlimit="10" fill="none"/></g><g clip-path="url(#clip3)"><path d="M0 0 0.000360892 1208" stroke="#000000" stroke-width="6.875" stroke-linejoin="round" stroke-miterlimit="10" fill="none" fill-rule="evenodd" transform="matrix(1 0 0 -1 248.5 1258.5)"/></g><g clip-path="url(#clip4)"><path d="M235.5 1258.5 248.5 1258.5M235.5 709.523 248.5 709.523M235.5 160.5 248.5 160.5" stroke="#000000" stroke-width="6.875" stroke-linejoin="round" stroke-miterlimit="10" fill="none"/></g><g clip-path="url(#clip5)"><path d="M248.5 1258.5 1994.5 1258.5" stroke="#000000" stroke-width="6.875" stroke-linejoin="round" stroke-miterlimit="10" fill="none" fill-rule="evenodd"/></g><g clip-path="url(#clip6)"><path d="M248.5 1258.5 248.5 1271.5M681.523 1258.5 681.523 1271.5M1113.54 1258.5 1113.54 1271.5M1545.55 1258.5 1545.55 1271.5M1977.5 1258.5 1977.5 1271.5" stroke="#000000" stroke-width="6.875" stroke-linejoin="round" stroke-miterlimit="10" fill="none"/></g><g clip-path="url(#clip7)"><path d="M257.5 617.52 274.509 656.522 292.51 695.523 309.51 722.524 326.511 738.524 343.511 743.525 361.512 737.524 378.513 727.524 395.513 712.524 413.514 690.523 430.514 667.522 447.515 640.521 464.515 617.52 482.516 592.52 499.517 564.519 516.517 534.518 534.518 505.517 551.518 480.516 568.519 453.515 585.519 430.514 603.52 405.513 620.521 385.513 637.521 363.512 655.522 340.511 672.522 321.511 689.523 304.51 706.523 291.51 724.524 274.509 741.525 262.509 758.525 251.508 776.526 242.508 793.526 237.508 810.527 225.508 827.527 219.507 845.528 213.507 862.528 211.507 879.529 205.5 897.53 209.507 914.53 209.507 931.531 213.507 948.531 215.507 966.532 220.507 983.532 224.508 1000.53 230.508 1018.53 242.508 1035.53 252.508 1052.53 264.509 1069.54 276.509 1087.54 289.51 1104.54 302.51 1121.54 314.51 1139.54 323.511 1156.54 337.511 1173.54 349.512 1190.54 364.512 1208.54 382.513 1225.54 397.513 1242.54 416.514 1260.54 430.514 1277.54 449.515 1294.54 463.515 1311.54 478.516 1329.54 494.516 1346.54 515.517 1363.54 533.518 1381.55 547.518 1398.55 563.519 1415.55 577.519 1432.55 592.52 1450.55 613.52 1467.55 629.521 1484.55 647.521 1502.55 660.522 1519.55 672.522 1536.55 686.523 1553.55 701.523 1571.55 721.524 1588.55 736.524 1605.55 749.525 1623.55 760.525 1640.55 771.526 1657.55 785.526 1674.56 799.526 1692.56 812.527 1709.56 824.527 1726.56 837.528 1744.56 848.528 1761.56 861.528 1778.56 868.529 1795.56 878.529 1813.56 890.529 1830.56 902.53 1847.56 912.53 1865.56 921.53 1882.56 929.531 1899.56 940.531 1917.56 952.531 1934.56 963.532 1951.56 974.532 1968.56 985.533 1986.5 994.5" stroke="#000000" stroke-width="6.875" stroke-linecap="round" stroke-linejoin="round" stroke-miterlimit="10" fill="none"/></g><g clip-path="url(#clip8)"><path d="M257.5 617.52 274.509 656.522 292.51 695.523 309.51 722.524 326.511 738.524 343.511 743.525 361.512 737.524 378.513 727.524 395.513 712.524 413.514 690.523 430.514 667.522 447.515 640.521 464.515 617.52 482.516 592.52 499.517 564.519 516.517 534.518 534.518 505.517 551.518 480.516 568.519 453.515 585.519 430.514 603.52 405.513 620.521 385.513 637.521 363.512 655.522 340.511 672.522 321.511 689.523 304.51 706.523 291.51 724.524 274.509 741.525 262.509 758.525 251.508 776.526 242.508 793.526 237.508 810.527 225.508 827.527 219.507 845.528 213.507 862.528 211.507 879.529 205.5 897.53 209.507 914.53 209.507 931.531 213.507 948.531 215.507 966.532 220.507 983.532 224.508 1000.53 230.508 1018.53 242.508 1035.53 252.508 1052.53 264.509 1069.54 276.509 1087.54 289.51 1104.54 302.51 1121.54 314.51 1139.54 323.511 1156.54 337.511 1173.54 349.512 1190.54 364.512 1208.54 382.513 1225.54 397.513 1242.54 416.514 1260.54 430.514 1277.54 449.515 1294.54 463.515 1311.54 478.516 1329.54 494.516 1346.54 515.517 1363.54 533.518 1381.55 547.518 1398.55 563.519 1415.55 577.519 1432.55 592.52 1450.55 613.52 1467.55 629.521 1484.55 647.521 1502.55 660.522 1519.55 672.522 1536.55 686.523 1553.55 701.523 1571.55 721.524 1588.55 736.524 1605.55 749.525 1623.55 760.525 1640.55 771.526 1657.55 785.526 1674.56 799.526 1692.56 812.527 1709.56 824.527 1726.56 837.528 1744.56 848.528 1761.56 861.528 1778.56 868.529 1795.56 878.529 1813.56 890.529 1830.56 902.53 1847.56 912.53 1865.56 921.53 1882.56 929.531 1899.56 940.531 1917.56 952.531 1934.56 963.532 1951.56 974.532 1968.56 985.533 1986.5 994.5" stroke="#000000" stroke-width="9.16667" stroke-linecap="round" stroke-linejoin="round" stroke-miterlimit="10" fill="none"/></g><g clip-path="url(#clip9)"><text fill="#595959" font-family="Calibri,Calibri_MSFontService,sans-serif" font-weight="400" font-size="41" transform="matrix(1 0 0 1 189.681 1270)">0</text></g><g clip-path="url(#clip10)"><text fill="#595959" font-family="Calibri,Calibri_MSFontService,sans-serif" font-weight="400" font-size="41" transform="matrix(1 0 0 1 147.881 721)">500</text></g><g clip-path="url(#clip11)"><text fill="#595959" font-family="Calibri,Calibri_MSFontService,sans-serif" font-weight="400" font-size="41" transform="matrix(1 0 0 1 126.981 172)">1000</text></g><g clip-path="url(#clip12)"><text fill="#595959" font-family="Calibri,Calibri_MSFontService,sans-serif" font-weight="400" font-size="41" transform="matrix(1 0 0 1 226.142 1323)">315</text></g><g clip-path="url(#clip13)"><text fill="#595959" font-family="Calibri,Calibri_MSFontService,sans-serif" font-weight="400" font-size="41" transform="matrix(1 0 0 1 658.324 1323)">340</text></g><g clip-path="url(#clip14)"><text fill="#595959" font-family="Calibri,Calibri_MSFontService,sans-serif" font-weight="400" font-size="41" transform="matrix(1 0 0 1 1090.51 1323)">365</text></g><g clip-path="url(#clip15)"><text fill="#595959" font-family="Calibri,Calibri_MSFontService,sans-serif" font-weight="400" font-size="41" transform="matrix(1 0 0 1 1522.69 1323)">390</text></g><g clip-path="url(#clip16)"><text fill="#595959" font-family="Calibri,Calibri_MSFontService,sans-serif" font-weight="400" font-size="41" transform="matrix(1 0 0 1 1954.87 1323)">415</text></g><g clip-path="url(#clip17)"><text fill="#595959" font-family="Calibri,Calibri_MSFontService,sans-serif" font-weight="400" font-size="46" transform="matrix(6.12323e-17 -1 1 6.12323e-17 101.292 735)">Intensity</text></g><g clip-path="url(#clip18)"><text fill="#595959" font-family="Calibri,Calibri_MSFontService,sans-serif" font-weight="400" font-size="46" transform="matrix(1 0 0 1 960.121 1392)">Wavelength (nm)</text></g><rect x="0" y="0" width="2067" height="1462" stroke="#898989" stroke-width="2.29167" stroke-linejoin="round" stroke-miterlimit="10" fill="none"/></g></svg>