<svg width="30" height="24" viewBox="0 0 30 24" fill="none" xmlns="http://www.w3.org/2000/svg">
<g clip-path="url(#clip0_119_81)">
<path d="M4.5 6C4.5 4.4087 5.13214 2.88258 6.25736 1.75736C7.38258 0.632141 8.9087 0 10.5 0C12.0913 0 13.6174 0.632141 14.7426 1.75736C15.8679 2.88258 16.5 4.4087 16.5 6C16.5 7.5913 15.8679 9.11742 14.7426 10.2426C13.6174 11.3679 12.0913 12 10.5 12C8.9087 12 7.38258 11.3679 6.25736 10.2426C5.13214 9.11742 4.5 7.5913 4.5 6ZM0 22.6078C0 17.9906 3.74063 14.25 8.35781 14.25H12.6422C17.2594 14.25 21 17.9906 21 22.6078C21 23.3766 20.3766 24 19.6078 24H1.39219C0.623438 24 0 23.3766 0 22.6078ZM28.5609 24H22.0969C22.35 23.5594 22.5 23.0484 22.5 22.5V22.125C22.5 19.2797 21.2297 16.725 19.2281 15.0094C19.3406 15.0047 19.4484 15 19.5609 15H22.4391C26.6156 15 30 18.3844 30 22.5609C30 23.3578 29.3531 24 28.5609 24ZM20.25 12C18.7969 12 17.4844 11.4094 16.5328 10.4578C17.4563 9.21094 18 7.66875 18 6C18 4.74375 17.6906 3.55781 17.1422 2.51719C18.0141 1.87969 19.0875 1.5 20.25 1.5C23.1516 1.5 25.5 3.84844 25.5 6.75C25.5 9.65156 23.1516 12 20.25 12Z" fill="#212121"/>
</g>
<defs>
<clipPath id="clip0_119_81">
<rect width="30" height="24" fill="white"/>
</clipPath>
</defs>
</svg>
