<svg width="40" height="40" viewBox="0 0 40 40" fill="none" xmlns="http://www.w3.org/2000/svg">
<path d="M25.4885 19.9999L20.2444 14.7558C19.919 14.4304 19.919 13.9028 20.2444 13.5773C20.5698 13.2519 21.0975 13.2519 21.4229 13.5773L28.0896 20.244C28.415 20.5694 28.415 21.0971 28.0896 21.4225L21.4229 28.0892C21.0975 28.4146 20.5698 28.4146 20.2444 28.0892C19.919 27.7637 19.919 27.2361 20.2444 26.9107L25.4885 21.6666H7.50033C7.04009 21.6666 6.66699 21.2935 6.66699 20.8333C6.66699 20.373 7.04009 19.9999 7.50033 19.9999H25.4885ZM31.667 9.16659C31.667 8.70635 32.0401 8.33325 32.5003 8.33325C32.9606 8.33325 33.3337 8.70635 33.3337 9.16659V32.4999C33.3337 32.9602 32.9606 33.3333 32.5003 33.3333C32.0401 33.3333 31.667 32.9602 31.667 32.4999V9.16659Z" fill="black"/>
</svg>
