<svg width="30" height="27" viewBox="0 0 30 27" fill="none" xmlns="http://www.w3.org/2000/svg">
<g clip-path="url(#clip0_122_84)">
<path d="M5 0C4.07812 0 3.33333 0.744792 3.33333 1.66667V11.6667H8.33333V10C8.33333 8.16146 9.82812 6.66667 11.6667 6.66667H23.3333V1.66667C23.3333 0.744792 22.5885 0 21.6667 0H5ZM11.6667 8.33333C10.7448 8.33333 10 9.07812 10 10V11.6667H15C16.8385 11.6667 18.3333 13.1615 18.3333 15V21.6667H28.3333C29.2552 21.6667 30 20.9219 30 20V10C30 9.07812 29.2552 8.33333 28.3333 8.33333H11.6667ZM24.1667 11.6667H25.8333C26.2917 11.6667 26.6667 12.0417 26.6667 12.5V14.1667C26.6667 14.625 26.2917 15 25.8333 15H24.1667C23.7083 15 23.3333 14.625 23.3333 14.1667V12.5C23.3333 12.0417 23.7083 11.6667 24.1667 11.6667ZM1.66667 13.3333C0.744792 13.3333 0 14.0781 0 15V15.6771L8.07812 21.6615C8.15104 21.7135 8.23958 21.7448 8.33333 21.7448C8.42708 21.7448 8.51562 21.7135 8.58854 21.6615L16.6667 15.6771V15C16.6667 14.0781 15.9219 13.3333 15 13.3333H1.66667ZM16.6667 17.75L9.58333 23C9.22396 23.2656 8.78646 23.4115 8.33333 23.4115C7.88021 23.4115 7.44792 23.2656 7.08333 23L0 17.75V25C0 25.9219 0.744792 26.6667 1.66667 26.6667H15C15.9219 26.6667 16.6667 25.9219 16.6667 25V17.75Z" fill="#212121"/>
</g>
<defs>
<clipPath id="clip0_122_84">
<rect width="30" height="26.6667" fill="white"/>
</clipPath>
</defs>
</svg>
