<svg width="50" height="50" viewBox="0 0 50 50" fill="none" xmlns="http://www.w3.org/2000/svg">
<path d="M5.20801 5.729C5.20801 5.3146 5.04339 4.91717 4.75036 4.62415C4.45734 4.33112 4.05991 4.1665 3.64551 4.1665C3.23111 4.1665 2.83368 4.33112 2.54065 4.62415C2.24763 4.91717 2.08301 5.3146 2.08301 5.729V44.2707C2.08301 45.1332 2.78301 45.8332 3.64551 45.8332H41.6663C42.0807 45.8332 42.4782 45.6685 42.7712 45.3755C43.0642 45.0825 43.2288 44.6851 43.2288 44.2707C43.2288 43.8563 43.0642 43.4588 42.7712 43.1658C42.4782 42.8728 42.0807 42.7082 41.6663 42.7082H5.20801V5.729Z" fill="black"/>
<path d="M46.4166 16.2083C46.6926 15.9121 46.8428 15.5203 46.8357 15.1155C46.8285 14.7107 46.6646 14.3245 46.3783 14.0382C46.092 13.7519 45.7058 13.588 45.301 13.5808C44.8962 13.5737 44.5044 13.7239 44.2082 13.9999L32.2916 25.9166L24.5416 18.1666C24.2486 17.874 23.8515 17.7096 23.4374 17.7096C23.0233 17.7096 22.6262 17.874 22.3332 18.1666L9.83325 30.6666C9.67973 30.8096 9.5566 30.9821 9.4712 31.1738C9.3858 31.3655 9.33988 31.5724 9.33618 31.7822C9.33248 31.992 9.37107 32.2004 9.44966 32.3949C9.52824 32.5895 9.64521 32.7662 9.79358 32.9146C9.94196 33.063 10.1187 33.1799 10.3133 33.2585C10.5078 33.3371 10.7162 33.3757 10.926 33.372C11.1358 33.3683 11.3427 33.3224 11.5344 33.237C11.726 33.1516 11.8985 33.0284 12.0416 32.8749L23.4374 21.4791L31.1874 29.2291C31.4804 29.5217 31.8775 29.686 32.2916 29.686C32.7056 29.686 33.1028 29.5217 33.3957 29.2291L46.4166 16.2083Z" fill="black"/>
</svg>
