<svg width="30" height="27" viewBox="0 0 30 27" fill="none" xmlns="http://www.w3.org/2000/svg">
<g clip-path="url(#clip0_119_72)">
<path d="M29.9896 13.3073C29.9896 14.2448 29.2083 14.9792 28.3229 14.9792H26.6562L26.6927 23.3229C26.6927 23.4635 26.6823 23.6042 26.6667 23.7448V24.5833C26.6667 25.7344 25.7344 26.6667 24.5833 26.6667H23.75C23.6927 26.6667 23.6354 26.6667 23.5781 26.6615C23.5052 26.6667 23.4323 26.6667 23.3594 26.6667H21.6667H20.4167C19.2656 26.6667 18.3333 25.7344 18.3333 24.5833V23.3333V20C18.3333 19.0781 17.5885 18.3333 16.6667 18.3333H13.3333C12.4115 18.3333 11.6667 19.0781 11.6667 20V23.3333V24.5833C11.6667 25.7344 10.7344 26.6667 9.58333 26.6667H8.33333H6.67188C6.59375 26.6667 6.51562 26.6615 6.4375 26.6562C6.375 26.6615 6.3125 26.6667 6.25 26.6667H5.41667C4.26562 26.6667 3.33333 25.7344 3.33333 24.5833V18.75C3.33333 18.7031 3.33333 18.651 3.33854 18.6042V14.9792H1.66667C0.729167 14.9792 0 14.25 0 13.3073C0 12.8385 0.15625 12.4219 0.520833 12.0573L13.875 0.416667C14.2396 0.0520833 14.6562 0 15.0208 0C15.3854 0 15.8021 0.104167 16.1146 0.364583L29.4167 12.0573C29.8333 12.4219 30.0417 12.8385 29.9896 13.3073Z" fill="#212121"/>
</g>
<defs>
<clipPath id="clip0_119_72">
<rect width="30" height="26.6667" fill="white"/>
</clipPath>
</defs>
</svg>
