<svg width="50" height="50" viewBox="0 0 50 50" fill="none" xmlns="http://www.w3.org/2000/svg">
<path d="M26.5625 37.5V43.75H35.9375C36.3519 43.75 36.7493 43.9146 37.0424 44.2076C37.3354 44.5007 37.5 44.8981 37.5 45.3125C37.5 45.7269 37.3354 46.1243 37.0424 46.4174C36.7493 46.7104 36.3519 46.875 35.9375 46.875H14.0625C13.6481 46.875 13.2507 46.7104 12.9576 46.4174C12.6646 46.1243 12.5 45.7269 12.5 45.3125C12.5 44.8981 12.6646 44.5007 12.9576 44.2076C13.2507 43.9146 13.6481 43.75 14.0625 43.75H23.4375V37.5H9.375C7.7174 37.5 6.12769 36.8415 4.95558 35.6694C3.78348 34.4973 3.125 32.9076 3.125 31.25V12.5C3.125 10.8424 3.78348 9.25268 4.95558 8.08058C6.12769 6.90848 7.7174 6.25 9.375 6.25H40.625C42.2826 6.25 43.8723 6.90848 45.0444 8.08058C46.2165 9.25268 46.875 10.8424 46.875 12.5V31.25C46.875 32.9076 46.2165 34.4973 45.0444 35.6694C43.8723 36.8415 42.2826 37.5 40.625 37.5H26.5625ZM9.375 9.375C8.5462 9.375 7.75134 9.70424 7.16529 10.2903C6.57924 10.8763 6.25 11.6712 6.25 12.5V31.25C6.25 32.0788 6.57924 32.8737 7.16529 33.4597C7.75134 34.0458 8.5462 34.375 9.375 34.375H40.625C41.4538 34.375 42.2487 34.0458 42.8347 33.4597C43.4208 32.8737 43.75 32.0788 43.75 31.25V12.5C43.75 11.6712 43.4208 10.8763 42.8347 10.2903C42.2487 9.70424 41.4538 9.375 40.625 9.375H9.375Z" fill="black"/>
</svg>
