<svg width="20" height="20" viewBox="0 0 20 20" fill="none" xmlns="http://www.w3.org/2000/svg">
<g clip-path="url(#clip0_222_143)">
<path d="M10 0C4.47727 0 0.000351562 4.47695 0 10C0.000351562 15.523 4.47727 19.9996 10 20C15.5227 19.9997 19.9996 15.523 20 10C19.9997 4.47695 15.5227 0 10 0ZM16.1258 3.87457C17.1921 4.94156 17.98 6.28316 18.376 7.78504C15.9563 6.79445 13.7959 6.32625 12.0769 6.12215C11.1764 6.01539 10.397 5.98078 9.7643 5.98078C9.47305 5.98078 9.21414 5.98797 8.98754 5.99906C10.0183 4.74594 11.4121 3.34105 13.2601 1.97398C14.3405 2.41316 15.3134 3.06258 16.1258 3.87457ZM10.0003 1.33734C10.7852 1.33734 11.5447 1.44344 12.2675 1.63902C10.2863 3.17391 8.83965 4.7398 7.81148 6.08887H7.8082L7.67824 6.26289C6.8868 7.32172 6.35723 8.2343 6.02781 8.87453C5.45871 7.355 4.93828 5.4473 4.68 3.16602C6.14895 2.02102 7.9927 1.33766 10.0003 1.33734ZM1.33734 10C1.33766 7.60672 2.30637 5.44367 3.87457 3.87457L3.89316 3.85691C4.24516 6.44477 4.91937 8.54871 5.60141 10.1391C6.12348 11.355 6.65012 12.2711 7.04027 12.8765C5.43981 12.6104 3.52684 12.1066 1.42059 11.1891C1.36734 10.8002 1.33734 10.4039 1.33734 10ZM3.87457 16.1254C2.8082 15.0588 2.02039 13.7168 1.62434 12.2156C4.04402 13.2059 6.20445 13.6741 7.92348 13.8782C8.82398 13.9849 9.60332 14.0192 10.2361 14.0192C10.5273 14.0192 10.7862 14.012 11.0128 14.0009C9.98203 15.254 8.5882 16.6593 6.73992 18.0266C5.65984 17.5872 4.68691 16.9378 3.87457 16.1254ZM10.0003 18.663C9.21512 18.663 8.45566 18.5569 7.73313 18.361C9.71398 16.8264 11.1607 15.2605 12.1888 13.9114H12.1921L12.3221 13.7374C13.1132 12.6792 13.6424 11.7673 13.9715 11.127C14.5416 12.6462 15.0617 14.5539 15.3203 16.8343C13.8514 17.9793 12.0076 18.6627 10.0003 18.663ZM16.1258 16.1254L16.1072 16.1431C15.7552 13.5565 15.0807 11.4529 14.3977 9.86223V9.86289C13.8766 8.6457 13.3502 7.72953 12.9598 7.12356C14.5602 7.39 16.4732 7.89375 18.5798 8.81125C18.633 9.20012 18.663 9.59648 18.663 10C18.6627 12.3936 17.694 14.5566 16.1258 16.1254Z" fill="black"/>
</g>
<defs>
<clipPath id="clip0_222_143">
<rect width="20" height="20" fill="white"/>
</clipPath>
</defs>
</svg>
