<svg width="20" height="20" viewBox="0 0 20 20" fill="none" xmlns="http://www.w3.org/2000/svg">
<g clip-path="url(#clip0_225_29)">
<path d="M9.1875 5.11819C9.35539 5.1137 9.53301 5.11069 9.72344 5.11069C11.8474 5.1103 15.3659 5.44308 19.5747 7.1103C19.0928 5.51104 18.2234 4.0812 17.0714 2.92929C16.155 2.01323 15.0636 1.27558 13.8508 0.769287C11.8725 2.24116 10.3488 3.74882 9.1875 5.11819Z" fill="black"/>
<path d="M6.86004 5.89184C8.04844 4.2366 9.79828 2.23363 12.2832 0.264805C11.5493 0.0938672 10.7861 0 9.99926 0C7.71492 0.000390625 5.61465 0.76582 3.93164 2.05367C4.21672 4.5018 4.76094 6.57461 5.36602 8.26328C5.71266 7.62289 6.19867 6.81242 6.86004 5.89184Z" fill="black"/>
<path d="M4.87211 10.6651C4.03344 8.80853 3.1741 6.29208 2.71137 3.15747C1.03023 4.94786 0.000351562 7.34974 0 9.99989C0 10.4341 0.0307813 10.8611 0.0841406 11.2807C2.34629 12.2572 4.41504 12.8247 6.18031 13.1454C5.79828 12.5246 5.33934 11.6987 4.87211 10.6651Z" fill="black"/>
<path d="M10.813 14.8814C10.6451 14.8859 10.4671 14.8889 10.2767 14.8889C8.1527 14.8896 4.63387 14.5565 0.425781 12.8896C0.907656 14.4882 1.77715 15.9184 2.92906 17.0707C3.84551 17.9864 4.93695 18.724 6.14973 19.2307C8.12793 17.7588 9.65172 16.2504 10.813 14.8814Z" fill="black"/>
<path d="M13.1399 14.1083C11.9516 15.7635 10.2017 17.7665 7.7168 19.7353C8.4507 19.9066 9.21391 20.0001 10 20.0001C12.2851 19.9997 14.3846 19.2343 16.0684 17.9464C15.7826 15.4983 15.2388 13.4262 14.634 11.7368C14.2873 12.3772 13.8013 13.1878 13.1399 14.1083Z" fill="black"/>
<path d="M19.9155 8.71916C17.6533 7.74299 15.5846 7.17475 13.8193 6.854C14.2009 7.47482 14.6603 8.30115 15.1275 9.33475C15.9662 11.1913 16.8255 13.7077 17.2882 16.8428C18.9694 15.0519 19.9992 12.6501 19.9996 9.9999C19.9996 9.56576 19.9688 9.1383 19.9155 8.71916Z" fill="black"/>
</g>
<defs>
<clipPath id="clip0_225_29">
<rect width="20" height="20" fill="white"/>
</clipPath>
</defs>
</svg>
