<svg width="20" height="20" viewBox="0 0 20 20" fill="none" xmlns="http://www.w3.org/2000/svg">
<path d="M7.6875 16.2968C7.6875 17.5719 8.72484 18.6097 9.99996 18.6097C11.275 18.6097 12.3124 17.5719 12.3124 16.2968V10.6616H7.6875V16.2968Z" fill="black"/>
<path d="M12.9606 0H7.04012C6.26793 0 5.63965 0.628242 5.63965 1.40094C5.63965 1.89984 5.90254 2.33883 6.29723 2.58703V2.71352V16.2967C6.29723 18.3387 7.95832 20 10.0004 20C12.0422 20 13.7035 18.3387 13.7035 16.2967V2.71352V2.58703C14.098 2.33883 14.3609 1.89984 14.3609 1.40094C14.3609 0.628242 13.7326 0 12.9606 0ZM13.0384 2.79867V5.72539V16.2967C13.0384 17.9746 11.6782 19.3352 10.0004 19.3352C8.32242 19.3352 6.9623 17.9746 6.9623 16.2967V5.77828V2.79867V2.61773C6.98793 2.61902 7.01402 2.61969 7.04012 2.61969H12.9606C12.9867 2.61969 13.0125 2.61902 13.0384 2.61773V2.79867ZM13.3077 2.04875H13.0384H6.9623H6.69285C6.46184 1.9248 6.30477 1.68145 6.30477 1.40094C6.30477 0.994258 6.63398 0.665078 7.04016 0.665078H12.9606C13.3666 0.665078 13.696 0.994258 13.696 1.40094C13.696 1.68145 13.5388 1.9248 13.3077 2.04875Z" fill="black"/>
</svg>
